PathFileType	4	(X/Y/Z)	/Users/niels/Desktop/University/Third Semester/Perception and Action/Exam/Gymnastics Motion Tracking/Code for Gym Tracking/Analyzed Data/Webcam_Backflip/id2001_3_baseline_Sports2D/id2001_3_baseline_Sports2D_px_person00.trc
DataRate	CameraRate	NumFrames	NumMarkers	Units	OrigDataRate	OrigDataStartFrame	OrigNumFrames
29.888475836431226	29.888475836431226	10	22	m	29.888475836431226	201	269
Frame#	Time	Hip			RHip			RKnee			RAnkle			RBigToe			RSmallToe			RHeel			LHip			LKnee			LAnkle			LBigToe			LSmallToe			LHeel			Neck			Head			Nose			RShoulder			RElbow			RWrist			LShoulder			LElbow			LWrist		
		X1	Y1	Z1	X2	Y2	Z2	X3	Y3	Z3	X4	Y4	Z4	X5	Y5	Z5	X6	Y6	Z6	X7	Y7	Z7	X8	Y8	Z8	X9	Y9	Z9	X10	Y10	Z10	X11	Y11	Z11	X12	Y12	Z12	X13	Y13	Z13	X14	Y14	Z14	X15	Y15	Z15	X16	Y16	Z16	X17	Y17	Z17	X18	Y18	Z18	X19	Y19	Z19	X20	Y20	Z20	X21	Y21	Z21	X22	Y22	Z22
201	6.7250000000000005	0.9972269569348976	-0.842217729704076	0.0	0.8821183500911978	-0.886770522988036	0.0	0.9097191018428566	-1.0769166276758135	0.0	1.177557289366268	-1.0798684519349921	0.0	1.6059312744140621	-1.1953297119140622	0.0	1.6316678466796872	-1.0674349365234375	0.0	1.3268730468750003	-1.0972822265625	0.0	1.0962433347628675	-0.8718576160485416	0.0	1.0872716470397477	-1.076654490997666	0.0	1.3517717285156243	-1.0607098388671872	0.0	1.3989272460937503	-1.1993594970703132	0.0	1.3389144287109374	-1.1993594970703132	0.0	1.1831392822265623	-1.1112026367187497	0.0	0.9585779664769524	-0.15792684137315424	0.0	0.9425813676240412	0.020546691375547387	0.0	0.9554121788301522	0.016137572296515256	0.0	0.7196729019605951	-0.3343105799876588	0.0	0.6659052021813737	-0.7642076271755357	0.0	0.6812199012386811	-1.055703628213702	0.0	1.1803128875897306	-0.14994635039980234	0.0	1.221446216674012	-0.4634989080275481	0.0	1.23968852998898	-0.7109150634497592	0.0
202	6.758457711442786	0.994226728720987	-0.8384903118269033	0.0	0.8748138874381479	-0.8811353332502826	0.0	0.905519331669919	-1.0773474768180185	0.0	1.0618055445021963	-1.0762727151244762	0.0	1.6059312744140621	-1.1953297119140622	0.0	1.6316678466796872	-1.0674349365234375	0.0	1.3268730468750003	-1.0972822265625	0.0	1.096025186179442	-0.8650736215117738	0.0	1.094435750783025	-1.078469830092425	0.0	1.3517717285156243	-1.0607098388671872	0.0	1.3989272460937503	-1.1993594970703132	0.0	1.3389144287109374	-1.1993594970703132	0.0	1.1831392822265623	-1.1112026367187497	0.0	0.9540485807731452	-0.1543479820726458	0.0	0.9475222828948837	0.019532120167703677	0.0	0.9578718308448361	0.022836972094333913	0.0	0.7057586253273581	-0.3275391927190812	0.0	0.6485236832149693	-0.7625132438964071	0.0	0.672308284689212	-1.056581193309598	0.0	1.1861370925349415	-0.13308361004419675	0.0	1.227655146004568	-0.4557362019384339	0.0	1.2456364567190588	-0.7069835546003097	0.0
203	6.791915422885573	0.9928988029145532	-0.8354171073727377	0.0	0.869379800215164	-0.8752173904380852	0.0	0.8992929561421462	-1.077722426300283	0.0	0.9312080914416305	-1.072215136090715	0.0	1.6059312744140621	-1.1953297119140622	0.0	1.6316678466796872	-1.0674349365234375	0.0	1.3268730468750003	-1.0972822265625	0.0	1.097605951684008	-0.8579294614612167	0.0	1.1042766817383576	-1.0802449242178573	0.0	1.3517717285156243	-1.0607098388671872	0.0	1.3989272460937503	-1.1993594970703132	0.0	1.3389144287109374	-1.1993594970703132	0.0	1.1831392822265623	-1.1112026367187497	0.0	0.9488810683218769	-0.1517006044805522	0.0	0.957438143592065	0.015316448978450869	0.0	0.9656842530816782	0.025010199455346462	0.0	0.6927276422981024	-0.3197757356249917	0.0	0.6316252876054892	-0.7579189380318162	0.0	0.6661157207499374	-1.0578346727155028	0.0	1.1914586199888404	-0.11562540622784553	0.0	1.2326104547200016	-0.4474653116171238	0.0	1.2505101568258459	-0.7010889811003645	0.0
204	6.825373134328359	0.9933047110791698	-0.8338925669163529	0.0	0.8658669104676935	-0.8707335740460346	0.0	0.8916593821750338	-1.0777578620584607	0.0	0.8154551161778145	-1.068617053045132	0.0	1.6059312744140621	-1.1953297119140622	0.0	1.6316678466796872	-1.0674349365234375	0.0	1.3268730468750003	-1.0972822265625	0.0	1.1008164482760938	-0.8520978427851177	0.0	1.1143168188133583	-1.0813939671685386	0.0	1.3517717285156243	-1.0607098388671872	0.0	1.3989272460937503	-1.1993594970703132	0.0	1.3389144287109374	-1.1993594970703132	0.0	1.1831392822265623	-1.1112026367187497	0.0	0.9433069393187017	-0.1484974227084457	0.0	0.9717728011397756	0.006598666839225106	0.0	0.979218344338674	0.021568732460750837	0.0	0.680733227716123	-0.31105764569298217	0.0	0.6153721129313302	-0.7515034584471404	0.0	0.662617887029947	-1.0595241359030307	0.0	1.1962706347492953	-0.09838453523665057	0.0	1.2365248739144734	-0.4383007157489336	0.0	1.254047316492027	-0.6933516612353887	0.0
205	6.858830845771145	0.9950890514258203	-0.8338611512146434	0.0	0.8641877487441867	-0.8685137370199191	0.0	0.8843341313947995	-1.0770375907806384	0.0	0.7342868876534269	-1.066089865906492	0.0	1.6059312744140621	-1.1953297119140622	0.0	1.6316678466796872	-1.0674349365234375	0.0	1.3268730468750003	-1.0972822265625	0.0	1.1048870223763572	-0.8481911139918955	0.0	1.121297483733319	-1.0812561963161111	0.0	1.3517717285156243	-1.0607098388671872	0.0	1.3989272460937503	-1.1993594970703132	0.0	1.3389144287109374	-1.1993594970703132	0.0	1.1831392822265623	-1.1112026367187497	0.0	0.9377257077534311	-0.1431024210137189	0.0	0.9895646549516619	-0.007386989064039359	0.0	0.9971766694235477	0.012058854748179524	0.0	0.6697977879220014	-0.3013705017929922	0.0	0.5997890307833538	-0.7443908700419147	0.0	0.6619478011296756	-1.0614382183575148	0.0	1.200574916087005	-0.08229174529923	0.0	1.239655696964102	-0.42795761911230407	0.0	1.2562672920172115	-0.6841766634520005	0.0
206	6.892288557213931	0.9976144320988716	-0.8347103324999743	0.0	0.8640330409042688	-0.8682783634230827	0.0	0.8786368575402091	-1.0751421622738326	0.0	0.6892921277632614	-1.0646804783512458	0.0	1.6059312744140621	-1.1953297119140622	0.0	1.6316678466796872	-1.0674349365234375	0.0	1.3268730468750003	-1.0972822265625	0.0	1.108785207784674	-0.8458498039504184	0.0	1.123036347692372	-1.0795853793982855	0.0	1.3517717285156243	-1.0607098388671872	0.0	1.3989272460937503	-1.1993594970703132	0.0	1.3389144287109374	-1.1993594970703132	0.0	1.1831392822265623	-1.1112026367187497	0.0	0.9325372352030955	-0.13524599301326604	0.0	1.0095284784415042	-0.02584454916562479	0.0	1.0170787657165605	-0.002674355291974935	0.0	0.6598444186402825	-0.2908634106766363	0.0	0.584939895050808	-0.7372755712112594	0.0	0.6644589211389839	-1.0631693792009165	0.0	1.2044796901382127	-0.06817357642375368	0.0	1.2422804079039234	-0.4166677769415529	0.0	1.2574790739707624	-0.6743921283345039	0.0
207	6.9257462686567175	1.0003231919741613	-0.8356396260446276	0.0	0.8649707295495104	-0.8689764995785244	0.0	0.8748802269135793	-1.0721638075085764	0.0	0.6713641910835271	-1.0641040629721141	0.0	1.6059312744140621	-1.1953297119140622	0.0	1.6316678466796872	-1.0674349365234375	0.0	1.3268730468750003	-1.0972822265625	0.0	1.1119253529063018	-0.8442011201769576	0.0	1.1202970805040608	-1.0769825373058928	0.0	1.3517717285156243	-1.0607098388671872	0.0	1.3989272460937503	-1.1993594970703132	0.0	1.3389144287109374	-1.1993594970703132	0.0	1.1831392822265623	-1.1112026367187497	0.0	0.9280040402947854	-0.12622046733342746	0.0	1.0296782860046518	-0.04602670526638073	0.0	1.036300431454462	-0.019880172955108927	0.0	0.6507859293456733	-0.2798907883402435	0.0	0.5711265665835535	-0.7303141963565827	0.0	0.6707348703048717	-1.0643066864870134	0.0	1.2081734434814975	-0.05638927129644169	0.0	1.2446897835460897	-0.40530712330020735	0.0	1.2582010591371422	-0.6651824784792815	0.0
208	6.959203980099503	1.0027628426047912	-0.8358513150042794	0.0	0.8663703017626947	-0.8694381102556002	0.0	0.8726238646636638	-1.0689705720448273	0.0	0.6694395728215231	-1.06401774346567	0.0	1.6059312744140621	-1.1953297119140622	0.0	1.6316678466796872	-1.0674349365234375	0.0	1.3268730468750003	-1.0972822265625	0.0	1.1142827185951063	-0.8423524132590687	0.0	1.1161926840514595	-1.074711706802045	0.0	1.3517717285156243	-1.0607098388671872	0.0	1.3989272460937503	-1.1993594970703132	0.0	1.3389144287109374	-1.1993594970703132	0.0	1.1831392822265623	-1.1112026367187497	0.0	0.9242164853089418	-0.1176279929454958	0.0	1.0477139360681336	-0.06432210039151903	0.0	1.0526518154267142	-0.035478659287862126	0.0	0.6425897932451389	-0.2689287426295883	0.0	0.5589463025565717	-0.7234259555607414	0.0	0.681458315869181	-1.064579471194854	0.0	1.211781458761007	-0.046765854146652054	0.0	1.247135491679403	-0.3948925009413342	0.0	1.2589734182109895	-0.657647850125146	0.0
209	6.992661691542289	1.0043407521589574	-0.8349358203066464	0.0	0.8672306507061521	-0.8690949465174079	0.0	0.8709314379754127	-1.0666338894998562	0.0	0.6746353581118052	-1.0641524892220244	0.0	1.6059312744140621	-1.1953297119140622	0.0	1.6316678466796872	-1.0674349365234375	0.0	1.3268730468750003	-1.0972822265625	0.0	1.1158901181647614	-0.8398897643794453	0.0	1.1135891682261831	-1.0738738627911886	0.0	1.3517717285156243	-1.0607098388671872	0.0	1.3989272460937503	-1.1993594970703132	0.0	1.3389144287109374	-1.1993594970703132	0.0	1.1831392822265623	-1.1112026367187497	0.0	0.9210824758984024	-0.11033752542438459	0.0	1.062156169516695	-0.07810628033544323	0.0	1.0645905307822086	-0.04623842357457041	0.0	0.6352655232879041	-0.25854268492859933	0.0	0.5491479583202532	-0.716713824640626	0.0	0.6969576411556008	-1.063885795644744	0.0	1.2152814402813843	-0.03898712524886112	0.0	1.2497482236661677	-0.3861393403829297	0.0	1.2601124778269033	-0.6523761493312401	0.0
210	7.026119402985075	1.0044368499806113	-0.8331661016284171	0.0	0.8665291600092183	-0.8682669552607054	0.0	0.8689305152832781	-1.065616387868998	0.0	0.6813719698632291	-1.0643520626796694	0.0	1.6059312744140621	-1.1953297119140622	0.0	1.6316678466796872	-1.0674349365234375	0.0	1.3268730468750003	-1.0972822265625	0.0	1.1165918655822507	-0.8370682198658809	0.0	1.113477320750232	-1.0746999232899876	0.0	1.3517717285156243	-1.0607098388671872	0.0	1.3989272460937503	-1.1993594970703132	0.0	1.3389144287109374	-1.1993594970703132	0.0	1.1831392822265623	-1.1112026367187497	0.0	0.9183815925163553	-0.10441010162118301	0.0	1.0729053878627588	-0.08677254827867195	0.0	1.0716165009105083	-0.05163338779493398	0.0	0.6288290587801235	-0.2493424189347324	0.0	0.5423164104763731	-0.7106995416093816	0.0	0.7167439513491426	-1.0622972788505185	0.0	1.2185463340384914	-0.03292192583774021	0.0	1.252520690908564	-0.3794392684783452	0.0	1.2616316378483097	-0.6494367948856411	0.0
